<svg width="512" height="512" viewBox="0 0 512 512" fill="none" xmlns="http://www.w3.org/2000/svg">
<path d="M0 5.00001C0 2.23859 2.23858 0 5 0H298.876C301.637 0 303.876 2.23859 303.876 5.00001V311.945C303.876 312.382 303.818 312.818 303.705 313.24L303.276 314.841C302.932 316.121 302.094 317.213 300.946 317.876L7.49999 487.297C4.16666 489.221 0 486.816 0 482.967V5.00001Z" fill="white"/>
<path fill-rule="evenodd" clip-rule="evenodd" d="M414.109 3.70589C414.695 1.51998 416.676 0 418.939 0H507C509.761 0 512 2.23858 512 5V193.139C512 194.926 511.047 196.576 509.5 197.47L345.684 292.048C341.826 294.275 337.202 290.726 338.355 286.423L414.109 3.70589Z" fill="white"/>
<path fill-rule="evenodd" clip-rule="evenodd" d="M330.404 5C330.404 2.23858 332.643 0 335.404 0H381.122C384.41 0 386.803 3.11849 385.952 6.29411L340.234 176.914C338.72 182.562 330.404 181.467 330.404 175.62V5Z" fill="white"/>
<path fill-rule="evenodd" clip-rule="evenodd" d="M251.44 508.294C250.854 510.48 248.873 512 246.61 512H36.4306C31.3151 512 29.5005 505.228 33.9307 502.67L282.576 359.115C286.434 356.888 291.058 360.437 289.906 364.739L251.44 508.294Z" fill="white"/>
<path fill-rule="evenodd" clip-rule="evenodd" d="M303.876 507C303.876 509.761 301.637 512 298.876 512H284.428C281.14 512 278.747 508.882 279.598 505.706L294.046 451.786C295.559 446.138 303.876 447.233 303.876 453.08V507Z" fill="white"/>
<path fill-rule="evenodd" clip-rule="evenodd" d="M512 507C512 509.761 509.761 512 507 512H335.404C332.643 512 330.404 509.761 330.404 507V334.388C330.404 332.602 331.357 330.951 332.904 330.058L504.5 230.989C507.833 229.064 512 231.47 512 235.319V507Z" fill="white"/>
</svg>
